<svg width="251" height="81" viewBox="0 0 251 81" fill="none" xmlns="http://www.w3.org/2000/svg">
<path d="M5.00958 50V12.2808H17.1836C19.8603 12.2808 22.095 12.7658 23.8876 13.7358C25.6925 14.6935 27.0493 16.0257 27.9579 17.7324C28.8788 19.4268 29.3392 21.3729 29.3392 23.5708C29.3392 25.7686 28.8788 27.7086 27.9579 29.3907C27.0493 31.0729 25.6987 32.3867 23.906 33.3321C22.1134 34.2775 19.891 34.7502 17.2389 34.7502H6.86976V31.6008H17.1468C19.1113 31.6008 20.7443 31.2755 22.0458 30.6247C23.3596 29.9739 24.3358 29.0469 24.9742 27.8436C25.625 26.6404 25.9504 25.2161 25.9504 23.5708C25.9504 21.9255 25.625 20.4889 24.9742 19.2611C24.3235 18.0209 23.3412 17.0632 22.0274 16.3879C20.7259 15.7126 19.0806 15.3749 17.0915 15.3749H8.45367V50H5.00958ZM21.6407 32.9822L30.9231 50H26.9449L17.7545 32.9822H21.6407Z" fill="#260101"/>
<path d="M59.3044 50V12.2808H81.1845V15.3749H62.7485V29.5749H80.0242V32.6691H62.7485V46.9058H81.5528V50H59.3044ZM74.6646 9.0393L70.2628 3.71662L65.861 9.0393H62.6564V8.79987L68.8815 1.37759H71.6442L77.8693 8.79987V9.0393H74.6646Z" fill="#260101"/>
<path d="M111.224 12.2808L123.011 45.5245H123.342L135.13 12.2808H138.739L125.018 50H121.335L107.614 12.2808H111.224Z" fill="#260101"/>
<path d="M190.695 50V12.2808H168.815V15.3749H187.251V29.5749H169.976V32.6691H187.251V46.9058H168.447V50H190.695Z" fill="#260101"/>
<path d="M244.99 50V12.2808H232.816C230.14 12.2808 227.905 12.7658 226.112 13.7358C224.307 14.6935 222.951 16.0257 222.042 17.7324C221.121 19.4268 220.661 21.3729 220.661 23.5708C220.661 25.7686 221.121 27.7086 222.042 29.3907C222.951 31.0729 224.301 32.3867 226.094 33.3321C227.887 34.2775 230.109 34.7502 232.761 34.7502H243.13V31.6008H232.853C230.889 31.6008 229.256 31.2755 227.954 30.6247C226.64 29.9739 225.664 29.0469 225.026 27.8436C224.375 26.6404 224.05 25.2161 224.05 23.5708C224.05 21.9255 224.375 20.4889 225.026 19.2611C225.677 18.0209 226.659 17.0632 227.973 16.3879C229.274 15.7126 230.919 15.3749 232.908 15.3749H241.546V50H244.99ZM228.359 32.9822L219.077 50H223.055L232.245 32.9822H228.359Z" fill="#260101"/>
<path d="M8.15873 68.5905C8.09593 68.0603 7.84126 67.6486 7.39471 67.3556C6.94816 67.0625 6.40044 66.916 5.75155 66.916C5.2771 66.916 4.86194 66.9927 4.5061 67.1462C4.15375 67.2997 3.87814 67.5108 3.67929 67.7794C3.48392 68.0481 3.38624 68.3533 3.38624 68.6952C3.38624 68.9813 3.45427 69.2272 3.59033 69.4331C3.72988 69.6354 3.9078 69.8046 4.12409 69.9407C4.34039 70.0732 4.56715 70.1831 4.80438 70.2703C5.04161 70.3541 5.25965 70.4221 5.45851 70.4744L6.54697 70.7675C6.82606 70.8407 7.13655 70.9419 7.47844 71.071C7.82382 71.2001 8.15349 71.3762 8.46747 71.5995C8.78494 71.8193 9.04659 72.1019 9.25242 72.4473C9.45825 72.7926 9.56117 73.2165 9.56117 73.7189C9.56117 74.298 9.40941 74.8213 9.1059 75.2888C8.80587 75.7563 8.3663 76.1278 7.78718 76.4034C7.21156 76.679 6.51208 76.8168 5.68876 76.8168C4.92125 76.8168 4.25666 76.693 3.69499 76.4453C3.1368 76.1976 2.69723 75.8522 2.37628 75.4091C2.05881 74.9661 1.87914 74.4515 1.83728 73.8654H3.17692C3.21181 74.2701 3.34787 74.605 3.5851 74.8701C3.82581 75.1318 4.12933 75.3271 4.49564 75.4562C4.86543 75.5818 5.26314 75.6446 5.68876 75.6446C6.18415 75.6446 6.62895 75.5644 7.02317 75.4039C7.41739 75.2399 7.72962 75.0132 7.95987 74.7236C8.19012 74.4306 8.30525 74.0887 8.30525 73.6979C8.30525 73.3421 8.20582 73.0525 8.00697 72.8293C7.80812 72.606 7.54647 72.4246 7.22202 72.285C6.89758 72.1455 6.54697 72.0234 6.17019 71.9187L4.85148 71.542C4.0142 71.3012 3.35136 70.9576 2.86294 70.5111C2.37453 70.0645 2.13033 69.4802 2.13033 68.758C2.13033 68.158 2.29255 67.6347 2.61699 67.1881C2.94493 66.7381 3.3845 66.3892 3.93571 66.1415C4.4904 65.8903 5.10964 65.7647 5.79342 65.7647C6.48417 65.7647 7.09817 65.8886 7.63543 66.1363C8.17268 66.3805 8.5983 66.7154 8.91228 67.141C9.22975 67.5666 9.3972 68.0498 9.41464 68.5905H8.15873ZM14.3449 76.6284H12.9843L16.9195 65.9113H18.2592L22.1944 76.6284H20.8338L17.6312 67.6067H17.5475L14.3449 76.6284ZM14.8473 72.442H20.3314V73.5933H14.8473V72.442ZM34.5725 65.9113V76.6284H33.3166L27.4766 68.2138H27.3719V76.6284H26.0741V65.9113H27.33L33.191 74.3468H33.2956V65.9113H34.5725ZM45.7347 76.6284V65.9113H49.3559C50.1967 65.9113 50.884 66.063 51.4177 66.3665C51.955 66.6666 52.3527 67.073 52.6109 67.5858C52.869 68.0986 52.9981 68.6708 52.9981 69.3022C52.9981 69.9337 52.869 70.5076 52.6109 71.0239C52.3562 71.5402 51.962 71.9519 51.4282 72.2589C50.8944 72.5624 50.2107 72.7141 49.3769 72.7141H46.7813V71.5629H49.335C49.9106 71.5629 50.3729 71.4635 50.7218 71.2646C51.0706 71.0658 51.3235 70.7971 51.4805 70.4587C51.641 70.1168 51.7213 69.7313 51.7213 69.3022C51.7213 68.8731 51.641 68.4894 51.4805 68.151C51.3235 67.8126 51.0689 67.5474 50.7165 67.3556C50.3642 67.1602 49.8967 67.0625 49.3141 67.0625H47.0325V76.6284H45.7347ZM57.2991 76.6284V65.9113H60.9203C61.7576 65.9113 62.4449 66.0543 62.9821 66.3404C63.5194 66.6229 63.9171 67.0119 64.1752 67.5073C64.4334 68.0027 64.5625 68.5661 64.5625 69.1976C64.5625 69.829 64.4334 70.389 64.1752 70.8774C63.9171 71.3658 63.5211 71.7495 62.9874 72.0286C62.4536 72.3042 61.7716 72.442 60.9413 72.442H58.0108V71.2698H60.8994C61.4715 71.2698 61.932 71.1861 62.2809 71.0187C62.6333 70.8512 62.8879 70.614 63.0449 70.307C63.2054 69.9965 63.2856 69.6267 63.2856 69.1976C63.2856 68.7685 63.2054 68.3934 63.0449 68.0725C62.8844 67.7515 62.628 67.5038 62.2757 67.3294C61.9233 67.1515 61.4576 67.0625 60.8785 67.0625H58.5969V76.6284H57.2991ZM62.3437 71.8141L64.9811 76.6284H63.474L60.8785 71.8141H62.3437ZM68.9354 76.6284V65.9113H75.4034V67.0625H70.2332V70.6837H75.0685V71.835H70.2332V75.4772H75.4871V76.6284H68.9354ZM79.3669 67.0625V65.9113H87.4047V67.0625H84.0347V76.6284H82.7369V67.0625H79.3669ZM100.215 71.2698C100.215 72.4002 100.01 73.377 99.6023 74.2003C99.1941 75.0236 98.6342 75.6586 97.9225 76.1051C97.2108 76.5517 96.398 76.7749 95.4839 76.7749C94.5699 76.7749 93.7571 76.5517 93.0454 76.1051C92.3337 75.6586 91.7738 75.0236 91.3656 74.2003C90.9574 73.377 90.7533 72.4002 90.7533 71.2698C90.7533 70.1395 90.9574 69.1627 91.3656 68.3394C91.7738 67.516 92.3337 66.8811 93.0454 66.4346C93.7571 65.988 94.5699 65.7647 95.4839 65.7647C96.398 65.7647 97.2108 65.988 97.9225 66.4346C98.6342 66.8811 99.1941 67.516 99.6023 68.3394C100.01 69.1627 100.215 70.1395 100.215 71.2698ZM98.9586 71.2698C98.9586 70.3419 98.8034 69.5587 98.4929 68.9202C98.1859 68.2818 97.769 67.7986 97.2422 67.4707C96.7189 67.1428 96.1328 66.9788 95.4839 66.9788C94.835 66.9788 94.2472 67.1428 93.7204 67.4707C93.1971 67.7986 92.7802 68.2818 92.4697 68.9202C92.1627 69.5587 92.0092 70.3419 92.0092 71.2698C92.0092 72.1978 92.1627 72.981 92.4697 73.6195C92.7802 74.2579 93.1971 74.7411 93.7204 75.069C94.2472 75.3969 94.835 75.5609 95.4839 75.5609C96.1328 75.5609 96.7189 75.3969 97.2422 75.069C97.769 74.7411 98.1859 74.2579 98.4929 73.6195C98.8034 72.981 98.9586 72.1978 98.9586 71.2698ZM113.231 69.2604H111.933C111.857 68.8871 111.722 68.5592 111.53 68.2766C111.342 67.994 111.112 67.7568 110.84 67.5649C110.571 67.3695 110.273 67.223 109.945 67.1253C109.617 67.0276 109.275 66.9788 108.919 66.9788C108.27 66.9788 107.682 67.1428 107.156 67.4707C106.632 67.7986 106.215 68.2818 105.905 68.9202C105.598 69.5587 105.444 70.3419 105.444 71.2698C105.444 72.1978 105.598 72.981 105.905 73.6195C106.215 74.2579 106.632 74.7411 107.156 75.069C107.682 75.3969 108.27 75.5609 108.919 75.5609C109.275 75.5609 109.617 75.512 109.945 75.4144C110.273 75.3167 110.571 75.1719 110.84 74.98C111.112 74.7847 111.342 74.5457 111.53 74.2631C111.722 73.977 111.857 73.6491 111.933 73.2793H113.231C113.133 73.827 112.955 74.3172 112.697 74.7498C112.439 75.1824 112.118 75.5504 111.734 75.8539C111.351 76.154 110.92 76.3825 110.442 76.5395C109.967 76.6964 109.46 76.7749 108.919 76.7749C108.005 76.7749 107.192 76.5517 106.481 76.1051C105.769 75.6586 105.209 75.0236 104.801 74.2003C104.393 73.377 104.188 72.4002 104.188 71.2698C104.188 70.1395 104.393 69.1627 104.801 68.3394C105.209 67.516 105.769 66.8811 106.481 66.4346C107.192 65.988 108.005 65.7647 108.919 65.7647C109.46 65.7647 109.967 65.8432 110.442 66.0002C110.92 66.1572 111.351 66.3875 111.734 66.691C112.118 66.991 112.439 67.3573 112.697 67.7899C112.955 68.219 113.133 68.7092 113.231 69.2604ZM107.831 62.6877L108.919 64.153L110.008 62.6877H111.18V62.7715L109.484 64.9484H108.354L106.658 62.7715V62.6877H107.831ZM117.539 76.6284V65.9113H124.007V67.0625H118.836V70.6837H123.672V71.835H118.836V75.4772H124.09V76.6284H117.539ZM137.055 65.9113V76.6284H135.799L129.959 68.2138H129.854V76.6284H128.556V65.9113H129.812L135.673 74.3468H135.778V65.9113H137.055ZM155.25 65.9113H156.548V73.0072C156.548 73.7398 156.375 74.3939 156.03 74.9696C155.688 75.5417 155.205 75.9935 154.58 76.3249C153.956 76.6528 153.223 76.8168 152.382 76.8168C151.541 76.8168 150.809 76.6528 150.184 76.3249C149.56 75.9935 149.075 75.5417 148.73 74.9696C148.388 74.3939 148.217 73.7398 148.217 73.0072V65.9113H149.515V72.9025C149.515 73.4258 149.63 73.8916 149.86 74.2997C150.09 74.7044 150.418 75.0236 150.844 75.2574C151.273 75.4876 151.786 75.6028 152.382 75.6028C152.979 75.6028 153.492 75.4876 153.921 75.2574C154.35 75.0236 154.678 74.7044 154.905 74.2997C155.135 73.8916 155.25 73.4258 155.25 72.9025V65.9113ZM167.705 76.6284V65.9113H171.326C172.167 65.9113 172.854 66.063 173.388 66.3665C173.925 66.6666 174.323 67.073 174.581 67.5858C174.839 68.0986 174.968 68.6708 174.968 69.3022C174.968 69.9337 174.839 70.5076 174.581 71.0239C174.326 71.5402 173.932 71.9519 173.398 72.2589C172.864 72.5624 172.181 72.7141 171.347 72.7141H168.751V71.5629H171.305C171.881 71.5629 172.343 71.4635 172.692 71.2646C173.041 71.0658 173.293 70.7971 173.45 70.4587C173.611 70.1168 173.691 69.7313 173.691 69.3022C173.691 68.8731 173.611 68.4894 173.45 68.151C173.293 67.8126 173.039 67.5474 172.686 67.3556C172.334 67.1602 171.867 67.0625 171.284 67.0625H169.002V76.6284H167.705ZM179.269 76.6284V65.9113H182.89C183.728 65.9113 184.415 66.0543 184.952 66.3404C185.489 66.6229 185.887 67.0119 186.145 67.5073C186.403 68.0027 186.532 68.5661 186.532 69.1976C186.532 69.829 186.403 70.389 186.145 70.8774C185.887 71.3658 185.491 71.7495 184.957 72.0286C184.424 72.3042 183.742 72.442 182.911 72.442H179.981V71.2698H182.869C183.441 71.2698 183.902 71.1861 184.251 71.0187C184.603 70.8512 184.858 70.614 185.015 70.307C185.175 69.9965 185.256 69.6267 185.256 69.1976C185.256 68.7685 185.175 68.3934 185.015 68.0725C184.854 67.7515 184.598 67.5038 184.246 67.3294C183.893 67.1515 183.428 67.0625 182.848 67.0625H180.567V76.6284H179.269ZM184.314 71.8141L186.951 76.6284H185.444L182.848 71.8141H184.314ZM199.948 71.2698C199.948 72.4002 199.744 73.377 199.336 74.2003C198.928 75.0236 198.368 75.6586 197.656 76.1051C196.944 76.5517 196.131 76.7749 195.217 76.7749C194.303 76.7749 193.49 76.5517 192.779 76.1051C192.067 75.6586 191.507 75.0236 191.099 74.2003C190.691 73.377 190.487 72.4002 190.487 71.2698C190.487 70.1395 190.691 69.1627 191.099 68.3394C191.507 67.516 192.067 66.8811 192.779 66.4346C193.49 65.988 194.303 65.7647 195.217 65.7647C196.131 65.7647 196.944 65.988 197.656 66.4346C198.368 66.8811 198.928 67.516 199.336 68.3394C199.744 69.1627 199.948 70.1395 199.948 71.2698ZM198.692 71.2698C198.692 70.3419 198.537 69.5587 198.226 68.9202C197.919 68.2818 197.502 67.7986 196.976 67.4707C196.452 67.1428 195.866 66.9788 195.217 66.9788C194.568 66.9788 193.981 67.1428 193.454 67.4707C192.931 67.7986 192.514 68.2818 192.203 68.9202C191.896 69.5587 191.743 70.3419 191.743 71.2698C191.743 72.1978 191.896 72.981 192.203 73.6195C192.514 74.2579 192.931 74.7411 193.454 75.069C193.981 75.3969 194.568 75.5609 195.217 75.5609C195.866 75.5609 196.452 75.3969 196.976 75.069C197.502 74.7411 197.919 74.2579 198.226 73.6195C198.537 72.981 198.692 72.1978 198.692 71.2698ZM210.201 68.5905C210.139 68.0603 209.884 67.6486 209.437 67.3556C208.991 67.0625 208.443 66.916 207.794 66.916C207.32 66.916 206.905 66.9927 206.549 67.1462C206.197 67.2997 205.921 67.5108 205.722 67.7794C205.527 68.0481 205.429 68.3533 205.429 68.6952C205.429 68.9813 205.497 69.2272 205.633 69.4331C205.773 69.6354 205.951 69.8046 206.167 69.9407C206.383 70.0732 206.61 70.1831 206.847 70.2703C207.084 70.3541 207.302 70.4221 207.501 70.4744L208.59 70.7675C208.869 70.8407 209.179 70.9419 209.521 71.071C209.867 71.2001 210.196 71.3762 210.51 71.5995C210.828 71.8193 211.089 72.1019 211.295 72.4473C211.501 72.7926 211.604 73.2165 211.604 73.7189C211.604 74.298 211.452 74.8213 211.149 75.2888C210.849 75.7563 210.409 76.1278 209.83 76.4034C209.254 76.679 208.555 76.8168 207.732 76.8168C206.964 76.8168 206.299 76.693 205.738 76.4453C205.18 76.1976 204.74 75.8522 204.419 75.4091C204.102 74.9661 203.922 74.4515 203.88 73.8654H205.22C205.255 74.2701 205.391 74.605 205.628 74.8701C205.869 75.1318 206.172 75.3271 206.538 75.4562C206.908 75.5818 207.306 75.6446 207.732 75.6446C208.227 75.6446 208.672 75.5644 209.066 75.4039C209.46 75.2399 209.772 75.0132 210.003 74.7236C210.233 74.4306 210.348 74.0887 210.348 73.6979C210.348 73.3421 210.249 73.0525 210.05 72.8293C209.851 72.606 209.589 72.4246 209.265 72.285C208.94 72.1455 208.59 72.0234 208.213 71.9187L206.894 71.542C206.057 71.3012 205.394 70.9576 204.906 70.5111C204.417 70.0645 204.173 69.4802 204.173 68.758C204.173 68.158 204.335 67.6347 204.66 67.1881C204.988 66.7381 205.427 66.3892 205.978 66.1415C206.533 65.8903 207.152 65.7647 207.836 65.7647C208.527 65.7647 209.141 65.8886 209.678 66.1363C210.215 66.3805 210.641 66.7154 210.955 67.141C211.273 67.5666 211.44 68.0498 211.457 68.5905H210.201ZM215.362 67.0625V65.9113H223.4V67.0625H220.03V76.6284H218.732V67.0625H215.362ZM236.21 71.2698C236.21 72.4002 236.006 73.377 235.597 74.2003C235.189 75.0236 234.629 75.6586 233.918 76.1051C233.206 76.5517 232.393 76.7749 231.479 76.7749C230.565 76.7749 229.752 76.5517 229.041 76.1051C228.329 75.6586 227.769 75.0236 227.361 74.2003C226.953 73.377 226.748 72.4002 226.748 71.2698C226.748 70.1395 226.953 69.1627 227.361 68.3394C227.769 67.516 228.329 66.8811 229.041 66.4346C229.752 65.988 230.565 65.7647 231.479 65.7647C232.393 65.7647 233.206 65.988 233.918 66.4346C234.629 66.8811 235.189 67.516 235.597 68.3394C236.006 69.1627 236.21 70.1395 236.21 71.2698ZM234.954 71.2698C234.954 70.3419 234.799 69.5587 234.488 68.9202C234.181 68.2818 233.764 67.7986 233.237 67.4707C232.714 67.1428 232.128 66.9788 231.479 66.9788C230.83 66.9788 230.242 67.1428 229.716 67.4707C229.192 67.7986 228.775 68.2818 228.465 68.9202C228.158 69.5587 228.004 70.3419 228.004 71.2698C228.004 72.1978 228.158 72.981 228.465 73.6195C228.775 74.2579 229.192 74.7411 229.716 75.069C230.242 75.3969 230.83 75.5609 231.479 75.5609C232.128 75.5609 232.714 75.3969 233.237 75.069C233.764 74.7411 234.181 74.2579 234.488 73.6195C234.799 72.981 234.954 72.1978 234.954 71.2698ZM240.602 76.6284V65.9113H244.223C245.061 65.9113 245.748 66.0543 246.285 66.3404C246.823 66.6229 247.22 67.0119 247.478 67.5073C247.737 68.0027 247.866 68.5661 247.866 69.1976C247.866 69.829 247.737 70.389 247.478 70.8774C247.22 71.3658 246.824 71.7495 246.291 72.0286C245.757 72.3042 245.075 72.442 244.244 72.442H241.314V71.2698H244.203C244.775 71.2698 245.235 71.1861 245.584 71.0187C245.936 70.8512 246.191 70.614 246.348 70.307C246.509 69.9965 246.589 69.6267 246.589 69.1976C246.589 68.7685 246.509 68.3934 246.348 68.0725C246.188 67.7515 245.931 67.5038 245.579 67.3294C245.226 67.1515 244.761 67.0625 244.182 67.0625H241.9V76.6284H240.602ZM245.647 71.8141L248.284 76.6284H246.777L244.182 71.8141H245.647Z" fill="#260101"/>
</svg>
