<svg width="161" height="54" viewBox="0 0 161 54" fill="none" xmlns="http://www.w3.org/2000/svg">
<path d="M3.88039 43.0171V10.9726H14.7079C17.2114 10.9726 19.2664 11.4002 20.8727 12.2556C22.4791 13.1005 23.6683 14.2636 24.4402 15.7448C25.2121 17.226 25.5981 18.9107 25.5981 20.7987C25.5981 22.6868 25.2121 24.361 24.4402 25.8213C23.6683 27.2817 22.4844 28.4291 20.8884 29.2636C19.2924 30.0877 17.2531 30.4997 14.7705 30.4997H6.00835V26.9948H14.6453C16.3561 26.9948 17.733 26.7445 18.7761 26.2438C19.8296 25.7431 20.5911 25.0338 21.0605 24.1158C21.5403 23.1875 21.7803 22.0818 21.7803 20.7987C21.7803 19.5157 21.5403 18.3943 21.0605 17.4347C20.5807 16.475 19.814 15.7344 18.7604 15.2128C17.7069 14.6808 16.3143 14.4149 14.5828 14.4149H7.76078V43.0171H3.88039ZM18.9638 28.6221L26.8498 43.0171H22.3435L14.5828 28.6221H18.9638Z" fill="#260101"/>
<path d="M36.9263 43.0168V10.9723H56.2657V14.4146H40.8067V25.2422H55.2643V28.6844H40.8067V39.5746H56.516V43.0168H36.9263ZM49.8192 8.09332L46.5647 3.71224L43.3102 8.09332H39.8053V7.84298L44.8748 1.33393H48.2545L53.3241 7.84298V8.09332H49.8192Z" fill="#260101"/>
<path d="M69.2212 10.9723L78.7344 37.9473H79.1099L88.6232 10.9723H92.6913L80.925 43.0168H76.9194L65.1531 10.9723H69.2212Z" fill="#260101"/>
<path d="M123.021 43V10.9555H103.682V14.3978H119.141V25.2253H104.683V28.6676H119.141V39.5577H103.431V43H123.021Z" fill="#260101"/>
<path d="M156.53 43.0168V10.9723H145.702C143.199 10.9723 141.144 11.4 139.538 12.2554C137.931 13.1003 136.742 14.2634 135.97 15.7446C135.198 17.2258 134.812 18.9104 134.812 20.7985C134.812 22.6865 135.198 24.3607 135.97 25.8211C136.742 27.2814 137.926 28.4289 139.522 29.2634C141.118 30.0874 143.157 30.4995 145.64 30.4995H154.402V26.9946H145.765C144.054 26.9946 142.677 26.7442 141.634 26.2435C140.581 25.7428 139.819 25.0335 139.35 24.1156C138.87 23.1872 138.63 22.0815 138.63 20.7985C138.63 19.5154 138.87 18.3941 139.35 17.4344C139.83 16.4748 140.596 15.7341 141.65 15.2126C142.704 14.6806 144.096 14.4146 145.828 14.4146H152.65V43.0168H156.53ZM141.447 28.6218L133.561 43.0168H138.067L145.828 28.6218H141.447Z" fill="#260101"/>
</svg>
