<svg width="161" height="54" viewBox="0 0 161 54" fill="none" xmlns="http://www.w3.org/2000/svg">
<path d="M4.25591 43.0171V10.9726H14.5984C16.8724 10.9726 18.7709 11.3846 20.2938 12.2087C21.8272 13.0223 22.9798 14.1541 23.7517 15.604C24.5341 17.0435 24.9253 18.6968 24.9253 20.564C24.9253 22.4312 24.5341 24.0793 23.7517 25.5084C22.9798 26.9375 21.8324 28.0536 20.3095 28.8568C18.7865 29.66 16.8985 30.0616 14.6453 30.0616H5.83623V27.386H14.5671C16.2361 27.386 17.6234 27.1096 18.7291 26.5567C19.8453 26.0039 20.6746 25.2163 21.217 24.1941C21.7698 23.1718 22.0463 21.9618 22.0463 20.564C22.0463 19.1662 21.7698 17.9458 21.217 16.9027C20.6641 15.8491 19.8296 15.0355 18.7135 14.4618C17.6078 13.8881 16.21 13.6012 14.5202 13.6012H7.18185V43.0171H4.25591ZM18.3849 28.5595L26.2709 43.0171H22.8912L15.0835 28.5595H18.3849Z" fill="#260101"/>
<path d="M37.3018 43.0168V10.9723H55.8901V13.601H40.2278V25.6646H54.9044V28.2933H40.2278V40.3882H56.2031V43.0168H37.3018ZM50.3512 8.2185L46.6116 3.69659L42.8721 8.2185H40.1495V8.01509L45.4381 1.70946H47.7851L53.0737 8.01509V8.2185H50.3512Z" fill="#260101"/>
<path d="M68.3293 10.9723L78.3433 39.2147H78.6249L88.6388 10.9723H91.7056L80.0487 43.0168H76.9194L65.2626 10.9723H68.3293Z" fill="#260101"/>
<path d="M122.645 43V10.9555H104.057V13.5841H119.72V25.6478H105.043V28.2764H119.72V40.3713H103.744V43H122.645Z" fill="#260101"/>
<path d="M156.154 43.0168V10.9723H145.812C143.538 10.9723 141.64 11.3844 140.117 12.2084C138.583 13.022 137.431 14.1538 136.659 15.6038C135.876 17.0433 135.485 18.6966 135.485 20.5638C135.485 22.431 135.876 24.0791 136.659 25.5081C137.431 26.9372 138.578 28.0533 140.101 28.8565C141.624 29.6597 143.512 30.0613 145.765 30.0613H154.574V27.3858H145.843C144.174 27.3858 142.787 27.1093 141.681 26.5565C140.565 26.0036 139.736 25.2161 139.193 24.1938C138.641 23.1716 138.364 21.9616 138.364 20.5638C138.364 19.166 138.641 17.9456 139.193 16.9024C139.746 15.8489 140.581 15.0353 141.697 14.4615C142.803 13.8878 144.2 13.601 145.89 13.601H153.229V43.0168H156.154ZM142.025 28.5593L134.14 43.0168H137.519L145.327 28.5593H142.025Z" fill="#260101"/>
</svg>
